<svg id="visual" viewBox="0 0 540 960" width="540" height="960" xmlns="http://www.w3.org/2000/svg" xmlns:xlink="http://www.w3.org/1999/xlink" version="1.1"><rect x="0" y="0" width="540" height="960" fill="#ffcadf"></rect><path d="M0 318L12.8 323C25.7 328 51.3 338 77 346C102.7 354 128.3 360 154 364.3C179.7 368.7 205.3 371.3 231.2 343.7C257 316 283 258 308.8 230.2C334.7 202.3 360.3 204.7 386 222.8C411.7 241 437.3 275 463 278.2C488.7 281.3 514.3 253.7 527.2 239.8L540 226L540 961L527.2 961C514.3 961 488.7 961 463 961C437.3 961 411.7 961 386 961C360.3 961 334.7 961 308.8 961C283 961 257 961 231.2 961C205.3 961 179.7 961 154 961C128.3 961 102.7 961 77 961C51.3 961 25.7 961 12.8 961L0 961Z" fill="#f1649c"></path><path d="M0 260L12.8 265C25.7 270 51.3 280 77 275C102.7 270 128.3 250 154 254.8C179.7 259.7 205.3 289.3 231.2 291.3C257 293.3 283 267.7 308.8 286.8C334.7 306 360.3 370 386 368.3C411.7 366.7 437.3 299.3 463 285.7C488.7 272 514.3 312 527.2 332L540 352L540 961L527.2 961C514.3 961 488.7 961 463 961C437.3 961 411.7 961 386 961C360.3 961 334.7 961 308.8 961C283 961 257 961 231.2 961C205.3 961 179.7 961 154 961C128.3 961 102.7 961 77 961C51.3 961 25.7 961 12.8 961L0 961Z" fill="#dd5c9b"></path><path d="M0 282L12.8 294.7C25.7 307.3 51.3 332.7 77 365.8C102.7 399 128.3 440 154 456.3C179.7 472.7 205.3 464.3 231.2 453.2C257 442 283 428 308.8 410.2C334.7 392.3 360.3 370.7 386 361.3C411.7 352 437.3 355 463 348.8C488.7 342.7 514.3 327.3 527.2 319.7L540 312L540 961L527.2 961C514.3 961 488.7 961 463 961C437.3 961 411.7 961 386 961C360.3 961 334.7 961 308.8 961C283 961 257 961 231.2 961C205.3 961 179.7 961 154 961C128.3 961 102.7 961 77 961C51.3 961 25.7 961 12.8 961L0 961Z" fill="#c95599"></path><path d="M0 470L12.8 457.3C25.7 444.7 51.3 419.3 77 421C102.7 422.7 128.3 451.3 154 469.3C179.7 487.3 205.3 494.7 231.2 505.2C257 515.7 283 529.3 308.8 516.8C334.7 504.3 360.3 465.7 386 443.3C411.7 421 437.3 415 463 433.5C488.7 452 514.3 495 527.2 516.5L540 538L540 961L527.2 961C514.3 961 488.7 961 463 961C437.3 961 411.7 961 386 961C360.3 961 334.7 961 308.8 961C283 961 257 961 231.2 961C205.3 961 179.7 961 154 961C128.3 961 102.7 961 77 961C51.3 961 25.7 961 12.8 961L0 961Z" fill="#b44f95"></path><path d="M0 498L12.8 514.5C25.7 531 51.3 564 77 573.2C102.7 582.3 128.3 567.7 154 541.7C179.7 515.7 205.3 478.3 231.2 457.7C257 437 283 433 308.8 453.2C334.7 473.3 360.3 517.7 386 524.2C411.7 530.7 437.3 499.3 463 481.5C488.7 463.7 514.3 459.3 527.2 457.2L540 455L540 961L527.2 961C514.3 961 488.7 961 463 961C437.3 961 411.7 961 386 961C360.3 961 334.7 961 308.8 961C283 961 257 961 231.2 961C205.3 961 179.7 961 154 961C128.3 961 102.7 961 77 961C51.3 961 25.7 961 12.8 961L0 961Z" fill="#9f4991"></path><path d="M0 572L12.8 580.8C25.7 589.7 51.3 607.3 77 605.3C102.7 603.3 128.3 581.7 154 563.2C179.7 544.7 205.3 529.3 231.2 528.3C257 527.3 283 540.7 308.8 551C334.7 561.3 360.3 568.7 386 575C411.7 581.3 437.3 586.7 463 571.2C488.7 555.7 514.3 519.3 527.2 501.2L540 483L540 961L527.2 961C514.3 961 488.7 961 463 961C437.3 961 411.7 961 386 961C360.3 961 334.7 961 308.8 961C283 961 257 961 231.2 961C205.3 961 179.7 961 154 961C128.3 961 102.7 961 77 961C51.3 961 25.7 961 12.8 961L0 961Z" fill="#8a448b"></path><path d="M0 627L12.8 614.3C25.7 601.7 51.3 576.3 77 564.2C102.7 552 128.3 553 154 565C179.7 577 205.3 600 231.2 602.2C257 604.3 283 585.7 308.8 587.7C334.7 589.7 360.3 612.3 386 626.7C411.7 641 437.3 647 463 644.2C488.7 641.3 514.3 629.7 527.2 623.8L540 618L540 961L527.2 961C514.3 961 488.7 961 463 961C437.3 961 411.7 961 386 961C360.3 961 334.7 961 308.8 961C283 961 257 961 231.2 961C205.3 961 179.7 961 154 961C128.3 961 102.7 961 77 961C51.3 961 25.7 961 12.8 961L0 961Z" fill="#743e85"></path><path d="M0 591L12.8 592C25.7 593 51.3 595 77 597.2C102.7 599.3 128.3 601.7 154 619C179.7 636.3 205.3 668.7 231.2 670.5C257 672.3 283 643.7 308.8 645.5C334.7 647.3 360.3 679.7 386 691.3C411.7 703 437.3 694 463 684C488.7 674 514.3 663 527.2 657.5L540 652L540 961L527.2 961C514.3 961 488.7 961 463 961C437.3 961 411.7 961 386 961C360.3 961 334.7 961 308.8 961C283 961 257 961 231.2 961C205.3 961 179.7 961 154 961C128.3 961 102.7 961 77 961C51.3 961 25.7 961 12.8 961L0 961Z" fill="#5f397d"></path><path d="M0 775L12.8 768.3C25.7 761.7 51.3 748.3 77 744C102.7 739.7 128.3 744.3 154 741C179.7 737.7 205.3 726.3 231.2 720.8C257 715.3 283 715.7 308.8 718.8C334.7 722 360.3 728 386 731.8C411.7 735.7 437.3 737.3 463 726.3C488.7 715.3 514.3 691.7 527.2 679.8L540 668L540 961L527.2 961C514.3 961 488.7 961 463 961C437.3 961 411.7 961 386 961C360.3 961 334.7 961 308.8 961C283 961 257 961 231.2 961C205.3 961 179.7 961 154 961C128.3 961 102.7 961 77 961C51.3 961 25.7 961 12.8 961L0 961Z" fill="#4b3474"></path><path d="M0 770L12.8 778C25.7 786 51.3 802 77 807.7C102.7 813.3 128.3 808.7 154 808.7C179.7 808.7 205.3 813.3 231.2 807.7C257 802 283 786 308.8 771.5C334.7 757 360.3 744 386 745C411.7 746 437.3 761 463 769.8C488.7 778.7 514.3 781.3 527.2 782.7L540 784L540 961L527.2 961C514.3 961 488.7 961 463 961C437.3 961 411.7 961 386 961C360.3 961 334.7 961 308.8 961C283 961 257 961 231.2 961C205.3 961 179.7 961 154 961C128.3 961 102.7 961 77 961C51.3 961 25.7 961 12.8 961L0 961Z" fill="#352e6a"></path><path d="M0 847L12.8 836.8C25.7 826.7 51.3 806.3 77 807C102.7 807.7 128.3 829.3 154 839.7C179.7 850 205.3 849 231.2 842C257 835 283 822 308.8 813C334.7 804 360.3 799 386 802.7C411.7 806.3 437.3 818.7 463 831.2C488.7 843.7 514.3 856.3 527.2 862.7L540 869L540 961L527.2 961C514.3 961 488.7 961 463 961C437.3 961 411.7 961 386 961C360.3 961 334.7 961 308.8 961C283 961 257 961 231.2 961C205.3 961 179.7 961 154 961C128.3 961 102.7 961 77 961C51.3 961 25.7 961 12.8 961L0 961Z" fill="#1f285f"></path><path d="M0 866L12.8 872.8C25.7 879.7 51.3 893.3 77 899.5C102.7 905.7 128.3 904.3 154 904.7C179.7 905 205.3 907 231.2 903.3C257 899.7 283 890.3 308.8 881.2C334.7 872 360.3 863 386 860.2C411.7 857.3 437.3 860.7 463 860C488.7 859.3 514.3 854.7 527.2 852.3L540 850L540 961L527.2 961C514.3 961 488.7 961 463 961C437.3 961 411.7 961 386 961C360.3 961 334.7 961 308.8 961C283 961 257 961 231.2 961C205.3 961 179.7 961 154 961C128.3 961 102.7 961 77 961C51.3 961 25.7 961 12.8 961L0 961Z" fill="#002254"></path></svg>