<svg id="visual" viewBox="0 0 540 960" width="540" height="960" xmlns="http://www.w3.org/2000/svg" xmlns:xlink="http://www.w3.org/1999/xlink" version="1.1"><rect x="0" y="0" width="540" height="960" fill="#FFFFFF"></rect><path d="M0 78L8.2 68.5C16.3 59 32.7 40 49 76C65.3 112 81.7 203 98 233.2C114.3 263.3 130.7 232.7 147 229.8C163.3 227 179.7 252 196 258.2C212.3 264.3 228.7 251.7 245.2 236.8C261.7 222 278.3 205 294.8 202C311.3 199 327.7 210 344 193.8C360.3 177.7 376.7 134.3 393 108.2C409.3 82 425.7 73 442 92C458.3 111 474.7 158 491 197.2C507.3 236.3 523.7 267.7 531.8 283.3L540 299L540 961L531.8 961C523.7 961 507.3 961 491 961C474.7 961 458.3 961 442 961C425.7 961 409.3 961 393 961C376.7 961 360.3 961 344 961C327.7 961 311.3 961 294.8 961C278.3 961 261.7 961 245.2 961C228.7 961 212.3 961 196 961C179.7 961 163.3 961 147 961C130.7 961 114.3 961 98 961C81.7 961 65.3 961 49 961C32.7 961 16.3 961 8.2 961L0 961Z" fill="#ff7f50"></path><path d="M0 111L8.2 153C16.3 195 32.7 279 49 279.2C65.3 279.3 81.7 195.7 98 173C114.3 150.3 130.7 188.7 147 193.5C163.3 198.3 179.7 169.7 196 180.7C212.3 191.7 228.7 242.3 245.2 255.5C261.7 268.7 278.3 244.3 294.8 244C311.3 243.7 327.7 267.3 344 283.8C360.3 300.3 376.7 309.7 393 287.7C409.3 265.7 425.7 212.3 442 186.3C458.3 160.3 474.7 161.7 491 176.3C507.3 191 523.7 219 531.8 233L540 247L540 961L531.8 961C523.7 961 507.3 961 491 961C474.7 961 458.3 961 442 961C425.7 961 409.3 961 393 961C376.7 961 360.3 961 344 961C327.7 961 311.3 961 294.8 961C278.3 961 261.7 961 245.2 961C228.7 961 212.3 961 196 961C179.7 961 163.3 961 147 961C130.7 961 114.3 961 98 961C81.7 961 65.3 961 49 961C32.7 961 16.3 961 8.2 961L0 961Z" fill="#f46c5c"></path><path d="M0 295L8.2 287.2C16.3 279.3 32.7 263.7 49 252.2C65.3 240.7 81.7 233.3 98 250.5C114.3 267.7 130.7 309.3 147 328C163.3 346.7 179.7 342.3 196 311.2C212.3 280 228.7 222 245.2 203C261.7 184 278.3 204 294.8 245.2C311.3 286.3 327.7 348.7 344 380.5C360.3 412.3 376.7 413.7 393 410.8C409.3 408 425.7 401 442 386.5C458.3 372 474.7 350 491 321.5C507.3 293 523.7 258 531.8 240.5L540 223L540 961L531.8 961C523.7 961 507.3 961 491 961C474.7 961 458.3 961 442 961C425.7 961 409.3 961 393 961C376.7 961 360.3 961 344 961C327.7 961 311.3 961 294.8 961C278.3 961 261.7 961 245.2 961C228.7 961 212.3 961 196 961C179.7 961 163.3 961 147 961C130.7 961 114.3 961 98 961C81.7 961 65.3 961 49 961C32.7 961 16.3 961 8.2 961L0 961Z" fill="#e45d67"></path><path d="M0 368L8.2 380.8C16.3 393.7 32.7 419.3 49 431C65.3 442.7 81.7 440.3 98 447C114.3 453.7 130.7 469.3 147 462.7C163.3 456 179.7 427 196 424C212.3 421 228.7 444 245.2 452.7C261.7 461.3 278.3 455.7 294.8 447.5C311.3 439.3 327.7 428.7 344 421.5C360.3 414.3 376.7 410.7 393 382.5C409.3 354.3 425.7 301.7 442 297.8C458.3 294 474.7 339 491 371.8C507.3 404.7 523.7 425.3 531.8 435.7L540 446L540 961L531.8 961C523.7 961 507.3 961 491 961C474.7 961 458.3 961 442 961C425.7 961 409.3 961 393 961C376.7 961 360.3 961 344 961C327.7 961 311.3 961 294.8 961C278.3 961 261.7 961 245.2 961C228.7 961 212.3 961 196 961C179.7 961 163.3 961 147 961C130.7 961 114.3 961 98 961C81.7 961 65.3 961 49 961C32.7 961 16.3 961 8.2 961L0 961Z" fill="#d05170"></path><path d="M0 329L8.2 343.2C16.3 357.3 32.7 385.7 49 404.3C65.3 423 81.7 432 98 438.2C114.3 444.3 130.7 447.7 147 458.7C163.3 469.7 179.7 488.3 196 498.7C212.3 509 228.7 511 245.2 491.5C261.7 472 278.3 431 294.8 426.8C311.3 422.7 327.7 455.3 344 440.8C360.3 426.3 376.7 364.7 393 359.3C409.3 354 425.7 405 442 414.3C458.3 423.7 474.7 391.3 491 367.5C507.3 343.7 523.7 328.3 531.8 320.7L540 313L540 961L531.8 961C523.7 961 507.3 961 491 961C474.7 961 458.3 961 442 961C425.7 961 409.3 961 393 961C376.7 961 360.3 961 344 961C327.7 961 311.3 961 294.8 961C278.3 961 261.7 961 245.2 961C228.7 961 212.3 961 196 961C179.7 961 163.3 961 147 961C130.7 961 114.3 961 98 961C81.7 961 65.3 961 49 961C32.7 961 16.3 961 8.2 961L0 961Z" fill="#b94976"></path><path d="M0 466L8.2 467.5C16.3 469 32.7 472 49 492.2C65.3 512.3 81.7 549.7 98 542C114.3 534.3 130.7 481.7 147 458C163.3 434.3 179.7 439.7 196 448.2C212.3 456.7 228.7 468.3 245.2 481.8C261.7 495.3 278.3 510.7 294.8 530.7C311.3 550.7 327.7 575.3 344 571.5C360.3 567.7 376.7 535.3 393 532.5C409.3 529.7 425.7 556.3 442 547.5C458.3 538.7 474.7 494.3 491 464.3C507.3 434.3 523.7 418.7 531.8 410.8L540 403L540 961L531.8 961C523.7 961 507.3 961 491 961C474.7 961 458.3 961 442 961C425.7 961 409.3 961 393 961C376.7 961 360.3 961 344 961C327.7 961 311.3 961 294.8 961C278.3 961 261.7 961 245.2 961C228.7 961 212.3 961 196 961C179.7 961 163.3 961 147 961C130.7 961 114.3 961 98 961C81.7 961 65.3 961 49 961C32.7 961 16.3 961 8.2 961L0 961Z" fill="#9f4378"></path><path d="M0 524L8.2 513.5C16.3 503 32.7 482 49 481C65.3 480 81.7 499 98 512.8C114.3 526.7 130.7 535.3 147 524C163.3 512.7 179.7 481.3 196 468.3C212.3 455.3 228.7 460.7 245.2 474.7C261.7 488.7 278.3 511.3 294.8 518C311.3 524.7 327.7 515.3 344 517.5C360.3 519.7 376.7 533.3 393 534.2C409.3 535 425.7 523 442 514C458.3 505 474.7 499 491 506.2C507.3 513.3 523.7 533.7 531.8 543.8L540 554L540 961L531.8 961C523.7 961 507.3 961 491 961C474.7 961 458.3 961 442 961C425.7 961 409.3 961 393 961C376.7 961 360.3 961 344 961C327.7 961 311.3 961 294.8 961C278.3 961 261.7 961 245.2 961C228.7 961 212.3 961 196 961C179.7 961 163.3 961 147 961C130.7 961 114.3 961 98 961C81.7 961 65.3 961 49 961C32.7 961 16.3 961 8.2 961L0 961Z" fill="#833f77"></path><path d="M0 563L8.2 581.5C16.3 600 32.7 637 49 652.5C65.3 668 81.7 662 98 659.2C114.3 656.3 130.7 656.7 147 649.5C163.3 642.3 179.7 627.7 196 620.7C212.3 613.7 228.7 614.3 245.2 623.8C261.7 633.3 278.3 651.7 294.8 667C311.3 682.3 327.7 694.7 344 673.8C360.3 653 376.7 599 393 567.5C409.3 536 425.7 527 442 548C458.3 569 474.7 620 491 654C507.3 688 523.7 705 531.8 713.5L540 722L540 961L531.8 961C523.7 961 507.3 961 491 961C474.7 961 458.3 961 442 961C425.7 961 409.3 961 393 961C376.7 961 360.3 961 344 961C327.7 961 311.3 961 294.8 961C278.3 961 261.7 961 245.2 961C228.7 961 212.3 961 196 961C179.7 961 163.3 961 147 961C130.7 961 114.3 961 98 961C81.7 961 65.3 961 49 961C32.7 961 16.3 961 8.2 961L0 961Z" fill="#673b72"></path><path d="M0 761L8.2 743.2C16.3 725.3 32.7 689.7 49 673C65.3 656.3 81.7 658.7 98 650C114.3 641.3 130.7 621.7 147 628.8C163.3 636 179.7 670 196 681.7C212.3 693.3 228.7 682.7 245.2 678C261.7 673.3 278.3 674.7 294.8 662.5C311.3 650.3 327.7 624.7 344 622.8C360.3 621 376.7 643 393 670C409.3 697 425.7 729 442 728.5C458.3 728 474.7 695 491 682.2C507.3 669.3 523.7 676.7 531.8 680.3L540 684L540 961L531.8 961C523.7 961 507.3 961 491 961C474.7 961 458.3 961 442 961C425.7 961 409.3 961 393 961C376.7 961 360.3 961 344 961C327.7 961 311.3 961 294.8 961C278.3 961 261.7 961 245.2 961C228.7 961 212.3 961 196 961C179.7 961 163.3 961 147 961C130.7 961 114.3 961 98 961C81.7 961 65.3 961 49 961C32.7 961 16.3 961 8.2 961L0 961Z" fill="#4b3769"></path><path d="M0 773L8.2 769.3C16.3 765.7 32.7 758.3 49 748.5C65.3 738.7 81.7 726.3 98 724.3C114.3 722.3 130.7 730.7 147 730C163.3 729.3 179.7 719.7 196 733.2C212.3 746.7 228.7 783.3 245.2 802.7C261.7 822 278.3 824 294.8 809.2C311.3 794.3 327.7 762.7 344 752.5C360.3 742.3 376.7 753.7 393 743C409.3 732.3 425.7 699.7 442 711.3C458.3 723 474.7 779 491 802C507.3 825 523.7 815 531.8 810L540 805L540 961L531.8 961C523.7 961 507.3 961 491 961C474.7 961 458.3 961 442 961C425.7 961 409.3 961 393 961C376.7 961 360.3 961 344 961C327.7 961 311.3 961 294.8 961C278.3 961 261.7 961 245.2 961C228.7 961 212.3 961 196 961C179.7 961 163.3 961 147 961C130.7 961 114.3 961 98 961C81.7 961 65.3 961 49 961C32.7 961 16.3 961 8.2 961L0 961Z" fill="#31315d"></path><path d="M0 798L8.2 794.8C16.3 791.7 32.7 785.3 49 801C65.3 816.7 81.7 854.3 98 858.7C114.3 863 130.7 834 147 835.2C163.3 836.3 179.7 867.7 196 864.8C212.3 862 228.7 825 245.2 825C261.7 825 278.3 862 294.8 869C311.3 876 327.7 853 344 837.8C360.3 822.7 376.7 815.3 393 817.8C409.3 820.3 425.7 832.7 442 835.7C458.3 838.7 474.7 832.3 491 829.2C507.3 826 523.7 826 531.8 826L540 826L540 961L531.8 961C523.7 961 507.3 961 491 961C474.7 961 458.3 961 442 961C425.7 961 409.3 961 393 961C376.7 961 360.3 961 344 961C327.7 961 311.3 961 294.8 961C278.3 961 261.7 961 245.2 961C228.7 961 212.3 961 196 961C179.7 961 163.3 961 147 961C130.7 961 114.3 961 98 961C81.7 961 65.3 961 49 961C32.7 961 16.3 961 8.2 961L0 961Z" fill="#182a4e"></path><path d="M0 905L8.2 913.5C16.3 922 32.7 939 49 941C65.3 943 81.7 930 98 919.2C114.3 908.3 130.7 899.7 147 906.2C163.3 912.7 179.7 934.3 196 933.5C212.3 932.7 228.7 909.3 245.2 903.2C261.7 897 278.3 908 294.8 904.2C311.3 900.3 327.7 881.7 344 881.3C360.3 881 376.7 899 393 910.3C409.3 921.7 425.7 926.3 442 919.3C458.3 912.3 474.7 893.7 491 884.5C507.3 875.3 523.7 875.7 531.8 875.8L540 876L540 961L531.8 961C523.7 961 507.3 961 491 961C474.7 961 458.3 961 442 961C425.7 961 409.3 961 393 961C376.7 961 360.3 961 344 961C327.7 961 311.3 961 294.8 961C278.3 961 261.7 961 245.2 961C228.7 961 212.3 961 196 961C179.7 961 163.3 961 147 961C130.7 961 114.3 961 98 961C81.7 961 65.3 961 49 961C32.7 961 16.3 961 8.2 961L0 961Z" fill="#00223e"></path></svg>